<svg width="32" height="32" viewBox="0 0 32 32" fill="none" xmlns="http://www.w3.org/2000/svg">
<rect width="32" height="32" fill="transparent"/>
<g clip-path="url(#clip0_102_2)">
<path d="M16 2.66663L3.33333 9.33329L16 16L28.6667 9.33329L16 2.66663Z" fill="#1C3D82"/>
<path d="M16 17.3333L3.33333 24L16 30.6666L28.6667 24L16 17.3333Z" fill="#2A64B8"/>
<path d="M16 16L3.33333 9.33329L16 2.66663L28.6667 9.33329L16 16Z" fill="url(#paint0_linear_102_2)"/>
<path d="M16 16L3.33333 24L16 30.6666L28.6667 24L16 16Z" fill="url(#paint1_linear_102_2)"/>
<path d="M16 16L28.6667 9.33333L16 2.66667L16 16ZM16 16L3.33333 9.33333L16 2.66667L16 16Z" fill="#0E2A5D"/>
<path d="M16 16L28.6667 24L16 30.6667L16 16ZM16 16L3.33333 24L16 30.6667L16 16Z" fill="#174987"/>
<path d="M16.5182 10.9998L17.7602 12.2418C18.4902 12.9718 19.4635 13.3332 20.4735 13.3332H25.3332V11.9998H20.4735C19.7135 11.9998 19.0069 11.7065 18.4719 11.1715L17.2299 9.9298C16.8919 9.59146 16.3449 9.59146 16.0069 9.9298L14.7649 11.1718C14.2299 11.7068 13.5232 11.9998 12.7632 11.9998H7.6665V13.3332H12.7632C13.7732 13.3332 14.7465 12.9718 15.4765 12.2418L16.7185 10.9998H16.5182Z" fill="#0C254A"/>
<path d="M25.3333 11.9999H20.4736C19.7136 11.9999 19.0069 11.7066 18.4719 11.1716L17.2299 9.92994C16.8919 9.59159 16.3449 9.59159 16.0069 9.92994L14.7649 11.1719C14.2299 11.7069 13.5232 11.9999 12.7632 11.9999H7.66667V13.3333H12.7633C13.7733 13.3333 14.7466 12.9719 15.4766 12.2419L16.7186 10.9999H16.5183L16.0069 9.92994L14.7649 11.1719L15.4766 12.2419H16.5183L17.2299 10.9999L18.4719 11.1716L19.0069 9.92994L20.4736 11.9999H25.3333V11.9999Z" fill="#0C254A"/>
<path d="M21.3333 22.6666H10.6667V24H21.3333V22.6666Z" fill="#0C254A"/>
<path d="M21.3333 19.9999H10.6667V21.3333H21.3333V19.9999Z" fill="#0C254A"/>
<path d="M25.3333 14.6667H7.66667V16H25.3333V14.6667Z" fill="#0C254A"/>
</g>
<defs>
<linearGradient id="paint0_linear_102_2" x1="16" y1="2.66663" x2="16" y2="16" gradientUnits="userSpaceOnUse">
<stop stop-color="#3A6DCF"/>
<stop offset="1" stop-color="#2A64B8"/>
</linearGradient>
<linearGradient id="paint1_linear_102_2" x1="16" y1="17.3333" x2="16" y2="30.6666" gradientUnits="userSpaceOnUse">
<stop stop-color="#3A6DCF"/>
<stop offset="1" stop-color="#2A64B8"/>
</linearGradient>
<clipPath id="clip0_102_2">
<rect width="32" height="32" fill="white"/>
</clipPath>
</defs>
</svg>
