<svg width="32" height="32" viewBox="0 0 32 32" fill="none" xmlns="http://www.w3.org/2000/svg">
<rect width="32" height="32" fill="transparent"/>
<circle cx="16" cy="16" r="15" fill="#1A1A2E"/>
<circle cx="16" cy="16" r="15.5" stroke="#00BFFF"/>

<path d="M8.5 21L10.25 11H11.75L13.5 21H12L11.5 18H9.5L9 21H8.5ZM10.75 17L10 14.75L9.25 17H10.75Z" fill="white"/>

<path d="M14.5 21L16.25 11H17.75L19.5 21H18L17.5 18H15.5L15 21H14.5ZM17.25 17L16.5 14.75L15.75 17H17.25Z" fill="white"/>

<rect x="15" y="11" width="2" height="10" fill="#00BFFF"/>
<rect x="14" y="11" width="4" height="2" fill="#00BFFF"/>
</svg>
